<?xml version="1.0" encoding="UTF-8" standalone="no"?>
<!-- Created with Inkscape (http://www.inkscape.org/) -->

<svg
   xmlns:dc="http://purl.org/dc/elements/1.1/"
   xmlns:cc="http://creativecommons.org/ns#"
   xmlns:rdf="http://www.w3.org/1999/02/22-rdf-syntax-ns#"
   xmlns:svg="http://www.w3.org/2000/svg"
   xmlns="http://www.w3.org/2000/svg"
   xmlns:sodipodi="http://sodipodi.sourceforge.net/DTD/sodipodi-0.dtd"
   xmlns:inkscape="http://www.inkscape.org/namespaces/inkscape"
   width="728.85718"
   height="619.20001"
   id="svg2"
   version="1.1"
   inkscape:version="0.48.4 r9939"
   sodipodi:docname="castle_silhouette.svg">
  <defs
     id="defs4" />
  <sodipodi:namedview
     id="base"
     pagecolor="#ffffff"
     bordercolor="#666666"
     borderopacity="1.0"
     inkscape:pageopacity="0.0"
     inkscape:pageshadow="2"
     inkscape:zoom="0.90509668"
     inkscape:cx="331.34845"
     inkscape:cy="297.73458"
     inkscape:document-units="px"
     inkscape:current-layer="layer1"
     showgrid="false"
     showguides="true"
     inkscape:guide-bbox="true"
     fit-margin-top="50"
     fit-margin-left="50"
     fit-margin-right="50"
     fit-margin-bottom="50"
     inkscape:window-width="1307"
     inkscape:window-height="744"
     inkscape:window-x="59"
     inkscape:window-y="24"
     inkscape:window-maximized="1" />
  <metadata
     id="metadata7">
    <rdf:RDF>
      <cc:Work
         rdf:about="">
        <dc:format>image/svg+xml</dc:format>
        <dc:type
           rdf:resource="http://purl.org/dc/dcmitype/StillImage" />
        <dc:title />
      </cc:Work>
    </rdf:RDF>
  </metadata>
  <g
     inkscape:label="Livello 1"
     inkscape:groupmode="layer"
     id="layer1"
     transform="translate(1881.9286,-0.80505053)">
    <path
       style="fill:#000000;fill-opacity:1;stroke:none"
       d="m -1829.8913,557.38744 6.0609,-182.33254 c 0,-3.71126 -4.1743,-9.83414 -2.0203,-14.14214 5.9048,-11.80956 12.5951,-15.38896 25.2538,-21.71827 6.8419,-3.42097 17.4045,1.76387 23.7386,-3.53554 6.677,-2.22567 10.122,-10.62714 15.1523,-15.65736 4.0553,-4.05533 20.123,-1.00418 22.7774,-7.28227 l 1.4286,-22.5 4.2857,-1.42857 37.5,13.57143 11.4286,1.07143 0,10 5,12.85714 3.5714,-0.35714 1.4286,-49.28571 5.3571,-11.07143 1.7857,-22.85715 4.6429,-1.78571 42.8571,12.14286 c 0.9971,-2.99114 4.0879,-4.81751 9.4597,-4.79571 l 6.061,-145.46197 24.2436,-9.091373 0,11.111683 30.3046,17.17259 14.1421,-14.14214 0,-11.111675 110.1067,-32.324882 -1.0102,-8.08122 7.0711,1.010152 7.071,-6.060915 102.0254,34.345187 5.0508,5.050762 1.0102,102.025411 c 8.3042,2.40827 14.252,6.71577 17.3212,12.8541 0.4649,0.92976 0.1328,2.63284 0.7143,3.21428 2.3831,2.38315 5.9125,6.26968 7.5,7.85715 1.9118,1.91187 2.3475,12.75694 3.5714,16.42857 l -0.7143,40.71428 c 1.5059,3.31908 0.658,6.95464 -0.3571,10 2.6355,10.01033 -2.6014,47.75578 3.5714,53.92857 3.2021,3.20207 28.3097,18.04794 29.2857,20 1.2935,2.58706 -0.7143,4.90263 -0.7143,7.5 2.5308,3.66814 -0.6184,7.23875 1.7857,9.64286 9.7358,9.73577 21.0634,20.70617 30.7143,30.35714 2.972,2.97198 0.1078,9.14403 2.1429,13.21429 1.1321,2.26421 2.0895,3.76858 2.8571,6.07143 l 2.8572,142.85714 -627.8572,2.14286 z"
       id="path3063"
       inkscape:connector-curvature="0" />
    <path
       style="fill:none;stroke:#adadad;stroke-width:1.60000002;stroke-linecap:butt;stroke-linejoin:miter;stroke-miterlimit:4;stroke-opacity:1;stroke-dasharray:none"
       d="m -1816.6071,348.79075 3.75,13.30357 c 2.1861,1.23244 7.1718,2.43962 8.5714,3.83929 4.4633,4.46328 11.2045,6.9188 15.3571,11.07143 1.6165,1.61644 5.0915,1.52003 6.4286,2.85714 2.9791,2.97911 6.2985,5.94137 9.6429,9.28572 2.5747,2.57477 3.5426,9.42117 5.3571,12.14285 l 109.2857,52.5 c 9.3774,4.72025 16.5027,10.92994 27.5,16.42857 18.9262,9.46311 33.9937,19.854 51.4286,28.57143 6.6589,3.32948 19.6423,20.35662 25,25.71429 11.9992,11.99921 28.5008,41.51807 35.7703,43.94126"
       id="path3083"
       inkscape:connector-curvature="0"
       sodipodi:nodetypes="ccccscccsssc" />
    <path
       style="fill:#adadad;fill-opacity:1;stroke:#adadad;stroke-width:1.60000002;stroke-linecap:butt;stroke-linejoin:miter;stroke-miterlimit:4;stroke-opacity:1;stroke-dasharray:none"
       d="m -1396.4096,142.71981 0.2525,24.4962 6.3135,2.27285 0.2525,-23.23351 c 0,-4.50238 -3.641,-8.03053 -6.8185,-3.53554 z"
       id="path3095"
       inkscape:connector-curvature="0"
       sodipodi:nodetypes="ccccc" />
    <path
       style="fill:#adadad;fill-opacity:1;stroke:#adadad;stroke-width:1.60000002;stroke-linecap:butt;stroke-linejoin:miter;stroke-miterlimit:4;stroke-opacity:1;stroke-dasharray:none"
       d="m -1386.8132,145.87654 -0.2525,23.61232 6.8185,2.39911 0.2526,-23.61232 c -0.8475,-4.23563 -4.6999,-8.79366 -6.8186,-2.39911 z"
       id="path3097"
       inkscape:connector-curvature="0" />
    <path
       style="fill:#adadad;fill-opacity:1;stroke:#adadad;stroke-width:1.60000002;stroke-linecap:butt;stroke-linejoin:miter;stroke-miterlimit:4;stroke-opacity:1;stroke-dasharray:none"
       d="m -1346.1545,156.73568 0.2525,23.23351 6.6923,2.0203 -0.1263,-22.09708 c -10e-5,-4.25905 -4.6013,-8.55606 -6.8185,-3.15673 z"
       id="path3099"
       inkscape:connector-curvature="0" />
    <path
       style="fill:#adadad;fill-opacity:1;stroke:#adadad;stroke-width:1.60000002;stroke-linecap:butt;stroke-linejoin:miter;stroke-miterlimit:4;stroke-opacity:1;stroke-dasharray:none"
       d="m -1336.053,160.65002 0.3788,22.22336 6.3134,1.76776 0.1263,-22.60216 c -0.9416,-4.70873 -5.6516,-8.56164 -6.8185,-1.38896 z"
       id="path3101"
       inkscape:connector-curvature="0" />
    <path
       style="fill:none;stroke:#adadad;stroke-width:1.60000002;stroke-linecap:butt;stroke-linejoin:miter;stroke-miterlimit:4;stroke-opacity:1;stroke-dasharray:none"
       d="m -1401.25,141.29075 c 1.09,-9.11712 9.744,-13.19732 13.5714,-4.10714 8.3246,-6.40207 12.3317,5.40858 13.5715,11.60714"
       id="path3111"
       inkscape:connector-curvature="0" />
    <path
       style="fill:none;stroke:#adadad;stroke-width:1.60000002;stroke-linecap:butt;stroke-linejoin:miter;stroke-miterlimit:4;stroke-opacity:1;stroke-dasharray:none"
       d="m -1351.0714,155.75504 c 4.6906,-11.26188 9.8707,-8.3047 13.5714,-3.75 8.727,-5.34987 11.2743,5.35014 13.2143,10.89286"
       id="path3113"
       inkscape:connector-curvature="0"
       sodipodi:nodetypes="ccc" />
    <path
       style="fill:none;stroke:#adadad;stroke-width:1.60000002;stroke-linecap:butt;stroke-linejoin:miter;stroke-miterlimit:4;stroke-opacity:1;stroke-dasharray:none"
       d="m -1677.5,327.71932 -109.9649,33.19344 c -3.0443,1.69875 -1.0102,4.82314 -1.0102,12.12184 0.621,1.2139 1.2086,3.89487 1.3322,4.32758"
       id="path3167"
       inkscape:connector-curvature="0" />
    <path
       style="fill:#adadad;fill-opacity:1;stroke:#adadad;stroke-width:1.60000002;stroke-linecap:butt;stroke-linejoin:miter;stroke-miterlimit:4;stroke-opacity:1;stroke-dasharray:none"
       d="m -1580.1786,93.612181 c 0.9524,-0.238096 0.9524,-0.238096 0,0 z"
       id="path3169"
       inkscape:connector-curvature="0" />
    <path
       style="fill:none;stroke:#adadad;stroke-width:1.60000002;stroke-linecap:butt;stroke-linejoin:miter;stroke-miterlimit:4;stroke-opacity:1;stroke-dasharray:none"
       d="m -1536.1888,107.24489 -1.0714,64.10714 -8.8112,1.72444 -38.0357,-28.21429 0.1785,-45.535714 3.9286,-5.714285 0.089,10.714289 30.3574,17.32142 z"
       id="path3171"
       inkscape:connector-curvature="0"
       sodipodi:nodetypes="cccccc" />
    <path
       style="fill:#adadad;fill-opacity:1;stroke:#adadad;stroke-width:1.60000002;stroke-linecap:butt;stroke-linejoin:miter;stroke-miterlimit:4;stroke-opacity:1;stroke-dasharray:none"
       d="m -1447.4223,96.884142 -0.1263,5.682108 7.0711,-1.51523 -0.1263,-6.56599 c -2.0247,-3.931615 -5.7998,-0.151902 -6.8185,2.904189"
       id="path3175"
       inkscape:connector-curvature="0" />
    <path
       style="fill:#adadad;fill-opacity:1;stroke:#adadad;stroke-width:1.60000002;stroke-linecap:butt;stroke-linejoin:miter;stroke-miterlimit:4;stroke-opacity:1;stroke-dasharray:none"
       d="m -1396.2834,89.181729 -0.2525,8.838835 8.0812,2.904186 -0.1262,-9.975254 c -0.5431,-4.34365 -6.6216,-7.036365 -7.7025,-1.767767 z"
       id="path3177"
       inkscape:connector-curvature="0"
       sodipodi:nodetypes="ccccc" />
    <path
       style="fill:#adadad;fill-opacity:1;stroke:#adadad;stroke-width:1.60000002;stroke-linecap:butt;stroke-linejoin:miter;stroke-miterlimit:4;stroke-opacity:1;stroke-dasharray:none"
       d="m -1353.7307,100.92475 0.1263,8.83884 8.0812,3.91434 0.1263,-11.11168 c -1.0707,-3.746965 -6.4732,-6.683251 -8.3338,-1.6415 z"
       id="path3179"
       inkscape:connector-curvature="0" />
    <path
       style="fill:#adadad;fill-opacity:1;stroke:#adadad;stroke-opacity:1"
       d="m 319.05982,512.6474 c -1.89521,-2.17529 -4.36669,-4.96582 -5.49216,-6.20117 -1.12547,-1.23535 -2.03039,-2.26336 -2.01092,-2.28447 0.0195,-0.0211 0.82362,0.2265 1.78702,0.55024 1.0532,0.35392 2.14518,0.88575 2.73864,1.33381 0.98764,0.74568 2.31929,1.47124 3.60355,1.96343 0.37597,0.14409 2.01941,0.81358 3.65208,1.48776 1.63266,0.67417 4.26938,1.5907 5.85937,2.03673 1.58999,0.44602 3.85769,1.10317 5.03933,1.46034 3.13551,0.94774 3.57026,1.04836 5.79355,1.34093 2.08377,0.27422 4.60163,1.04641 5.40952,1.65903 0.44813,0.33982 0.32977,0.35307 -4.27968,0.47897 -2.6073,0.0712 -7.87118,0.12948 -11.6975,0.12948 l -6.95695,0 -3.44585,-3.95508 z"
       id="path3024"
       inkscape:connector-curvature="0"
       transform="translate(-1881.9286,0.80505053)" />
    <path
       style="fill:#adadad;fill-opacity:1;stroke:#adadad;stroke-opacity:1"
       d="m 332.06555,527.19818 c -0.522,-0.61767 -1.37124,-1.5748 -1.8872,-2.12694 l -0.9381,-1.0039 3.57246,-0.11476 c 1.96485,-0.0631 6.67326,-0.16658 10.46313,-0.22992 l 6.89068,-0.11517 2.87495,0.9766 c 3.45839,1.1748 4.36911,1.40911 8.09477,2.08261 1.58184,0.28595 3.69121,0.76965 4.6875,1.07489 l 1.81143,0.55498 -17.31026,0.0123 -17.31026,0.0123 -0.9491,-1.12305 z"
       id="path3026"
       inkscape:connector-curvature="0"
       transform="translate(-1881.9286,0.80505053)" />
    <path
       style="fill:#adadad;fill-opacity:1;stroke:#adadad;stroke-opacity:1"
       d="m 339.54747,536.88698 c -0.62401,-0.86711 -1.10741,-1.60142 -1.07422,-1.6318 0.0332,-0.0304 8.4271,-0.27624 18.65313,-0.54635 18.13477,-0.47902 18.61831,-0.48226 19.62891,-0.13189 0.56987,0.19758 2.9815,0.97952 5.35918,1.73765 7.5149,2.39615 9.67921,2.13425 -17.70196,2.14212 l -23.73047,0.007 -1.13457,-1.57656 z"
       id="path3028"
       inkscape:connector-curvature="0"
       transform="translate(-1881.9286,0.80505053)" />
    <path
       style="fill:#adadad;fill-opacity:1;stroke:#adadad;stroke-opacity:1"
       d="m 347.2939,547.63746 c -0.42224,-0.57998 -1.10135,-1.51594 -1.50915,-2.0799 l -0.74145,-1.02539 2.60453,0.003 c 1.43249,0.002 12.05277,-0.0968 23.60062,-0.2191 l 20.99609,-0.22233 2.65779,-0.36484 c 0.81726,0.44386 3.55569,1.01732 4.41441,1.27435 2.37261,0.71015 4.63386,2.61611 7.28327,2.67394 l 1.07422,0.0235 -0.87891,0.15299 c -0.4834,0.0841 -10.94238,0.25116 -23.24219,0.37115 -12.2998,0.11999 -25.31713,0.27414 -28.9274,0.34256 l -6.56413,0.1244 -0.7677,-1.0545 0,0 z"
       id="path3030"
       inkscape:connector-curvature="0"
       sodipodi:nodetypes="csccsccscccsscccc"
       transform="translate(-1881.9286,0.80505053)" />
    <path
       style="fill:#adadad;fill-opacity:1;stroke:#adadad;stroke-opacity:1"
       d="m 355.42152,558.68404 c -0.98986,-1.2399 -1.74093,-2.31318 -1.66906,-2.38506 0.0719,-0.0719 18.1663,-0.56261 40.20982,-1.09051 34.7031,-0.83109 40.55071,-0.92981 43.59476,-0.73595 3.89176,0.24785 7.46492,0.16457 8.12449,1.51924 l 3.20364,-0.61975 3.02734,1.17188 c 3.49335,1.35227 5.1257,0.065 5.56641,0.26218 0.32226,0.1442 1.79079,0.3393 3.26339,0.43357 2.19052,0.14022 2.897,0.26379 3.88464,0.67948 1.32458,0.55751 4.37722,1.35705 5.98673,1.56802 0.56397,0.0739 1.02539,0.19147 1.02539,0.26121 0,0.096 -108.37415,1.2414 -113.41007,1.19863 l -1.00773,-0.009 -1.79975,-2.25438 z"
       id="path3032"
       inkscape:connector-curvature="0"
       sodipodi:nodetypes="ccssscscsscscccc"
       transform="translate(-1881.9286,0.80505053)" />
    <path
       style="fill:#adadad;fill-opacity:1;stroke:#adadad;stroke-opacity:1"
       d="m 363.63425,567.43634 c 0.0129,-0.64842 -0.59315,-0.63475 61.79721,-1.39357 47.22127,-0.57433 61.51356,-0.80257 61.62576,-0.98411 0.11335,-0.18341 0.92969,-0.18936 3.64326,-0.0266 5.90205,0.3541 21.45426,1.74482 21.29483,1.90425 -0.0402,0.0402 -23.04554,0.15265 -51.1229,0.24981 -28.07736,0.0972 -61.44281,0.22701 -74.14545,0.28855 -12.70263,0.0615 -23.09435,0.0443 -23.09271,-0.0384 z"
       id="path3034"
       inkscape:connector-curvature="0"
       transform="translate(-1881.9286,0.80505053)" />
    <path
       style="fill:none;stroke:#adadad;stroke-width:1.60000002;stroke-linejoin:miter;stroke-miterlimit:4;stroke-opacity:1;stroke-dasharray:none"
       d="m 309.083,501.80924 c 3.51811,3.63828 14.82151,7.54886 21.82088,11.04854 2.78253,1.39127 13.25078,1.3736 15.19174,3.31456 1.31146,1.31146 0.82864,9.47527 0.82864,7.18156 0,-0.49582 0.88525,0.55242 1.38107,0.55242 1.04309,0 3.20595,0.0838 5.24806,1.10486 3.9181,1.95905 9.87393,2.55474 13.81068,3.86699 1.68988,0.26975 0.732,3.21792 1.38107,3.86699 2.10713,2.10713 9.24901,0.13396 11.32476,2.20971 0.90407,0.90408 5.49399,3.03835 6.90533,3.03835 0.31192,0 0.11031,3.80017 0.95694,4.6468 0.61039,0.61039 7.2304,1.22071 7.54729,1.22071 0.6731,0 12.39676,2.97592 11.92026,3.88087 1.78094,0.9216 0.15974,3.65429 1.12017,4.61472 1.51032,1.51031 12.0885,0.53052 14.90022,1.93638 3.21155,1.60577 11.28143,-1.27517 13.826,-0.003 2.86496,1.43248 10.96015,0.27721 12.45355,1.02395 2.41668,1.20834 0.85108,0.63333 3.01441,0.63333 0.008,0 2.4162,1.03513 2.48592,1.10486 0.52489,0.52488 1.46741,-0.27622 2.20971,-0.27622 6.30015,0 10.26268,1.02704 15.46796,2.76214 0.89206,1.78977 1.04278,2.42384 1.38107,2.76213 1.39074,1.39075 9.23929,0.82864 10.49611,0.82864 1.47062,0 11.58821,2.47316 11.60098,2.48593 0.30802,0.30802 2.55434,0 3.03834,0 6.47346,0 12.71744,0.18801 19.61117,2.48592"
       id="path3862"
       inkscape:connector-curvature="0"
       transform="translate(-1881.9286,0.80505053)"
       sodipodi:nodetypes="cssssscssssscssscscscssssc" />
  </g>
</svg>
